<svg width="82" height="10" viewBox="0 0 82 10" fill="none" xmlns="http://www.w3.org/2000/svg">
<path d="M6.66 3.144C6.468 2.792 6.204 2.524 5.868 2.34C5.532 2.156 5.14 2.064 4.692 2.064C4.196 2.064 3.756 2.176 3.372 2.4C2.988 2.624 2.688 2.944 2.472 3.36C2.256 3.776 2.148 4.256 2.148 4.8C2.148 5.36 2.256 5.848 2.472 6.264C2.696 6.68 3.004 7 3.396 7.224C3.788 7.448 4.244 7.56 4.764 7.56C5.404 7.56 5.928 7.392 6.336 7.056C6.744 6.712 7.012 6.236 7.14 5.628H4.26V4.344H8.796V5.808C8.684 6.392 8.444 6.932 8.076 7.428C7.708 7.924 7.232 8.324 6.648 8.628C6.072 8.924 5.424 9.072 4.704 9.072C3.896 9.072 3.164 8.892 2.508 8.532C1.86 8.164 1.348 7.656 0.972 7.008C0.604 6.36 0.42 5.624 0.42 4.8C0.42 3.976 0.604 3.24 0.972 2.592C1.348 1.936 1.86 1.428 2.508 1.068C3.164 0.7 3.892 0.516 4.692 0.516C5.636 0.516 6.456 0.748 7.152 1.212C7.848 1.668 8.328 2.312 8.592 3.144H6.66Z" fill="#4608F1"/>
<path d="M15.0789 9L13.2309 5.736H12.4389V9H10.7589V0.624H13.9029C14.5509 0.624 15.1029 0.74 15.5589 0.972C16.0149 1.196 16.3549 1.504 16.5789 1.896C16.8109 2.28 16.9269 2.712 16.9269 3.192C16.9269 3.744 16.7669 4.244 16.4469 4.692C16.1269 5.132 15.6509 5.436 15.0189 5.604L17.0229 9H15.0789ZM12.4389 4.476H13.8429C14.2989 4.476 14.6389 4.368 14.8629 4.152C15.0869 3.928 15.1989 3.62 15.1989 3.228C15.1989 2.844 15.0869 2.548 14.8629 2.34C14.6389 2.124 14.2989 2.016 13.8429 2.016H12.4389V4.476ZM24.3024 7.404H20.9664L20.4144 9H18.6504L21.6624 0.611999H23.6184L26.6304 9H24.8544L24.3024 7.404ZM23.8464 6.06L22.6344 2.556L21.4224 6.06H23.8464ZM28.0683 4.8C28.0683 3.976 28.2523 3.24 28.6203 2.592C28.9963 1.936 29.5043 1.428 30.1443 1.068C30.7923 0.7 31.5163 0.516 32.3163 0.516C33.2523 0.516 34.0723 0.756 34.7763 1.236C35.4803 1.716 35.9723 2.38 36.2523 3.228H34.3203C34.1283 2.828 33.8563 2.528 33.5043 2.328C33.1603 2.128 32.7603 2.028 32.3043 2.028C31.8163 2.028 31.3803 2.144 30.9963 2.376C30.6203 2.6 30.3243 2.92 30.1083 3.336C29.9003 3.752 29.7963 4.24 29.7963 4.8C29.7963 5.352 29.9003 5.84 30.1083 6.264C30.3243 6.68 30.6203 7.004 30.9963 7.236C31.3803 7.46 31.8163 7.572 32.3043 7.572C32.7603 7.572 33.1603 7.472 33.5043 7.272C33.8563 7.064 34.1283 6.76 34.3203 6.36H36.2523C35.9723 7.216 35.4803 7.884 34.7763 8.364C34.0803 8.836 33.2603 9.072 32.3163 9.072C31.5163 9.072 30.7923 8.892 30.1443 8.532C29.5043 8.164 28.9963 7.656 28.6203 7.008C28.2523 6.36 28.0683 5.624 28.0683 4.8ZM40.0872 1.98V4.08H42.9072V5.412H40.0872V7.632H43.2672V9H38.4072V0.611999H43.2672V1.98H40.0872ZM62.8198 9H61.1398L57.3358 3.252V9H55.6558V0.611999H57.3358L61.1398 6.372V0.611999H62.8198V9ZM66.88 7.668H69.64V9H65.2V0.624H66.88V7.668ZM78.0878 0.624L75.2558 6.084V9H73.5758V6.084L70.7318 0.624H72.6278L74.4278 4.452L76.2158 0.624H78.0878Z" fill="black"/>
<path d="M49.4019 9.084C48.6179 9.084 47.8979 8.9 47.2419 8.532C46.5859 8.164 46.0659 7.656 45.6819 7.008C45.2979 6.352 45.1059 5.612 45.1059 4.788C45.1059 3.972 45.2979 3.24 45.6819 2.592C46.0659 1.936 46.5859 1.424 47.2419 1.056C47.8979 0.688 48.6179 0.504 49.4019 0.504C50.1939 0.504 50.9139 0.688 51.5619 1.056C52.2179 1.424 52.7339 1.936 53.1099 2.592C53.4939 3.24 53.6859 3.972 53.6859 4.788C53.6859 5.612 53.4939 6.352 53.1099 7.008C52.7339 7.656 52.2179 8.164 51.5619 8.532C50.9059 8.9 50.1859 9.084 49.4019 9.084ZM49.4019 7.584C49.9059 7.584 50.3499 7.472 50.7339 7.248C51.1179 7.016 51.4179 6.688 51.6339 6.264C51.8499 5.84 51.9579 5.348 51.9579 4.788C51.9579 4.228 51.8499 3.74 51.6339 3.324C51.4179 2.9 51.1179 2.576 50.7339 2.352C50.3499 2.128 49.9059 2.016 49.4019 2.016C48.8979 2.016 48.4499 2.128 48.0579 2.352C47.6739 2.576 47.3739 2.9 47.1579 3.324C46.9419 3.74 46.8339 4.228 46.8339 4.788C46.8339 5.348 46.9419 5.84 47.1579 6.264C47.3739 6.688 47.6739 7.016 48.0579 7.248C48.4499 7.472 48.8979 7.584 49.4019 7.584Z" fill="#FF1414"/>
<path d="M80.5208 9.084C80.2168 9.084 79.9648 8.992 79.7648 8.808C79.5728 8.616 79.4768 8.38 79.4768 8.1C79.4768 7.82 79.5728 7.588 79.7648 7.404C79.9648 7.212 80.2168 7.116 80.5208 7.116C80.8168 7.116 81.0608 7.212 81.2528 7.404C81.4448 7.588 81.5408 7.82 81.5408 8.1C81.5408 8.38 81.4448 8.616 81.2528 8.808C81.0608 8.992 80.8168 9.084 80.5208 9.084Z" fill="#EEAF18"/>
</svg>
